# xmcd CD database file
#
# Track frame offsets:
#	150
#	23301
#	43992
#	73617
#	96197
#	115199
#	135292
#	161294
#	180637
#	222474
#
# Disc length: 3181 seconds
#
# Revision: 0
# Processed by: cddbd v1.5.2PL0 Copyright (c) Steve Scherf et al.
# Submitted via: CDex 1.70beta2
#
DISCID=7f0c6b0a
DTITLE=Tessa Smith - Bookmark
DYEAR=2009
DGENRE=Jazz
TTITLE0=I Don't Like It
TTITLE1=A Time For Love
TTITLE2=I Remember Clifford
TTITLE3=Tess'Torch Song
TTITLE4=The Saga of Harrisson Crabfeathers
TTITLE5=Never Will I Marry
TTITLE6=Waves
TTITLE7=Sunny
TTITLE8=Mahjong
TTITLE9=Bookmark
EXTD=YEAR: 2009
EXTT0=
EXTT1=
EXTT2=
EXTT3=
EXTT4=
EXTT5=
EXTT6=
EXTT7=
EXTT8=
EXTT9=
PLAYORDER=
